<?xml version="1.0"?>
<svg xmlns="http://www.w3.org/2000/svg" xmlns:xlink="http://www.w3.org/1999/xlink" xmlns:svgjs="http://svgjs.com/svgjs" version="1.1" width="512" height="512" x="0" y="0" viewBox="0 0 510 510" style="enable-background:new 0 0 512 512" xml:space="preserve" class=""><rect width="510" height="510" rx="20" ry="20" fill="#bac8d3" shape="rounded"/><g transform="matrix(0.7,0,0,0.7,76.49985008239747,76.5)"><g xmlns="http://www.w3.org/2000/svg" id="XMLID_1411_"><path id="XMLID_1414_" d="m76.363 238.489c19.684 20.133 46.497 31.511 74.99 31.511l10-105-10-105c-28.497 0-55.313 11.381-74.991 31.511z" fill="#dc8758" data-original="#dc8758" style="" class=""/><g fill="#d0e8ff"><path id="XMLID_1417_" d="m301.353 75h75v30h-75z" fill="#d0e8ff" data-original="#d0e8ff" style="" class=""/><path id="XMLID_1422_" d="m286.353 135h90v30h-90z" fill="#d0e8ff" data-original="#d0e8ff" style="" class=""/><path id="XMLID_1427_" d="m301.353 195h75v30h-75z" fill="#d0e8ff" data-original="#d0e8ff" style="" class=""/></g><path id="XMLID_1430_" d="m56.382 209.719c3.561 7.574 8.009 14.742 13.318 21.294 2.114 2.613 4.342 5.103 6.663 7.477 34.188-6.973 59.99-37.273 59.99-73.489 0-36.217-25.804-66.518-59.991-73.489-2.318 2.371-4.543 4.857-6.653 7.466-5.313 6.557-9.764 13.728-13.326 21.304z" fill="#bc6337" data-original="#bc6337" style="" class=""/><path id="XMLID_1442_" d="m136.353 330v30h-82.293l-5-30-15.707-10-14.707 10 30 180h102.707l10-105-10-75-9-10zm0 150h-62.293l-5-30h67.293zm0-60h-72.293l-5-30h77.293z" fill="#e7f2ff" data-original="#e7f2ff" style=""/><path id="XMLID_1456_" d="m284.06 330-14.707-10-15.707 10-5 30h-82.293v-30l-7.5-10-7.5 10v180h102.707zm-55.414 150h-62.293v-30h67.293zm10-60h-72.293v-30h77.293z" fill="#d0e8ff" data-original="#d0e8ff" style="" class=""/><path id="XMLID_1463_" d="m13.646 300 5 30h30.414 87.293 15l10-15-10-15z" fill="#4d5e80" data-original="#4d5e80" style=""/><path id="XMLID_1467_" d="m281.41 300h-130.057v30h14.167 82.444 28.724 129.665l10-15-10-15z" fill="#3d4566" data-original="#3d4566" style="" class=""/><path id="XMLID_1470_" d="m226.344 91.511c-19.684-20.133-46.497-31.511-74.991-31.511v210c28.497 0 55.314-11.381 74.991-31.511z" fill="#bc6337" data-original="#bc6337" style="" class=""/><path id="XMLID_1473_" d="m466.353 510h-60v-510h60l10.001 255z" fill="#4d5e80" data-original="#4d5e80" style=""/><path id="XMLID_1476_" d="m466.353 0h30v510h-30z" fill="#3d4566" data-original="#3d4566" style="" class=""/><path id="XMLID_1479_" d="m56.382 209.719c1.634.181 3.291.281 4.972.281 24.814 0 45-20.188 45-45s-20.186-45-45-45c-1.681 0-3.337.101-4.971.28-6.535 13.902-10.029 29.193-10.029 44.72-.001 15.527 3.495 30.819 10.028 44.719z" fill="#dc8758" data-original="#dc8758" style="" class=""/><path id="XMLID_1482_" d="m246.325 120.281c-3.561-7.574-8.01-14.742-13.318-21.294-2.114-2.613-4.342-5.102-6.663-7.477-34.187 6.973-59.99 37.273-59.99 73.489 0 36.217 25.804 66.518 59.991 73.489 2.318-2.371 4.543-4.857 6.653-7.466 5.312-6.557 9.764-13.728 13.326-21.305z" fill="#a54c25" data-original="#a54c25" style="" class=""/><path id="XMLID_1485_" d="m196.353 165c0 24.812 20.187 45 45 45 1.681 0 3.337-.101 4.971-.281 6.535-13.901 10.029-29.192 10.029-44.719s-3.495-30.819-10.028-44.719c-1.634-.181-3.291-.281-4.972-.281-24.813 0-45 20.188-45 45z" fill="#bc6337" data-original="#bc6337" style="" class=""/></g></g></svg>
